<svg xmlns="http://www.w3.org/2000/svg" class="plant stage-stem" viewBox="0 0 100 120" preserveAspectRatio="xMidYMax meet" aria-hidden="true"><defs>
        <linearGradient id="gp-daisy" x1="0" y1="0" x2="0" y2="1">
          <stop offset="0%" stop-color="#ffeef6"/><stop offset="100%" stop-color="#ffffff"/>
        </linearGradient>
        <linearGradient id="gh-daisy" x1="0" y1="0" x2="0" y2="1">
          <stop offset="0%" stop-color="#ffffff" stop-opacity=".85"/><stop offset="100%" stop-color="#ffeef6"/>
        </linearGradient>
        <linearGradient id="gp-tulip" x1="0" y1="0" x2="0" y2="1">
          <stop offset="0%" stop-color="#ff9dbd"/><stop offset="100%" stop-color="#ff5d8f"/>
        </linearGradient>
        <linearGradient id="gh-tulip" x1="0" y1="0" x2="0" y2="1">
          <stop offset="0%" stop-color="#ffffff" stop-opacity=".85"/><stop offset="100%" stop-color="#ff9dbd"/>
        </linearGradient>
        <linearGradient id="gp-bluebell" x1="0" y1="0" x2="0" y2="1">
          <stop offset="0%" stop-color="#a5adff"/><stop offset="100%" stop-color="#6f7bff"/>
        </linearGradient>
        <linearGradient id="gh-bluebell" x1="0" y1="0" x2="0" y2="1">
          <stop offset="0%" stop-color="#ffffff" stop-opacity=".85"/><stop offset="100%" stop-color="#a5adff"/>
        </linearGradient>
        <linearGradient id="gp-lavender" x1="0" y1="0" x2="0" y2="1">
          <stop offset="0%" stop-color="#cba3f0"/><stop offset="100%" stop-color="#a06cd5"/>
        </linearGradient>
        <linearGradient id="gh-lavender" x1="0" y1="0" x2="0" y2="1">
          <stop offset="0%" stop-color="#ffffff" stop-opacity=".85"/><stop offset="100%" stop-color="#cba3f0"/>
        </linearGradient>
        <linearGradient id="gp-rose" x1="0" y1="0" x2="0" y2="1">
          <stop offset="0%" stop-color="#ff7a7a"/><stop offset="100%" stop-color="#e03131"/>
        </linearGradient>
        <linearGradient id="gh-rose" x1="0" y1="0" x2="0" y2="1">
          <stop offset="0%" stop-color="#ffffff" stop-opacity=".85"/><stop offset="100%" stop-color="#ff7a7a"/>
        </linearGradient>
        <linearGradient id="gp-peony" x1="0" y1="0" x2="0" y2="1">
          <stop offset="0%" stop-color="#ff93c4"/><stop offset="100%" stop-color="#ff4f9a"/>
        </linearGradient>
        <linearGradient id="gh-peony" x1="0" y1="0" x2="0" y2="1">
          <stop offset="0%" stop-color="#ffffff" stop-opacity=".85"/><stop offset="100%" stop-color="#ff93c4"/>
        </linearGradient>
        <linearGradient id="gp-marigold" x1="0" y1="0" x2="0" y2="1">
          <stop offset="0%" stop-color="#ffc857"/><stop offset="100%" stop-color="#ff9f1c"/>
        </linearGradient>
        <linearGradient id="gh-marigold" x1="0" y1="0" x2="0" y2="1">
          <stop offset="0%" stop-color="#ffffff" stop-opacity=".85"/><stop offset="100%" stop-color="#ffc857"/>
        </linearGradient>
        <linearGradient id="gp-orchid" x1="0" y1="0" x2="0" y2="1">
          <stop offset="0%" stop-color="#ffd4ec"/><stop offset="100%" stop-color="#ff8fd0"/>
        </linearGradient>
        <linearGradient id="gh-orchid" x1="0" y1="0" x2="0" y2="1">
          <stop offset="0%" stop-color="#ffffff" stop-opacity=".85"/><stop offset="100%" stop-color="#ffd4ec"/>
        </linearGradient>
        <linearGradient id="gp-sunlotus" x1="0" y1="0" x2="0" y2="1">
          <stop offset="0%" stop-color="#fff3b0"/><stop offset="100%" stop-color="#ffc93c"/>
        </linearGradient>
        <linearGradient id="gh-sunlotus" x1="0" y1="0" x2="0" y2="1">
          <stop offset="0%" stop-color="#ffffff" stop-opacity=".85"/><stop offset="100%" stop-color="#fff3b0"/>
        </linearGradient>
        <linearGradient id="gp-jadefern" x1="0" y1="0" x2="0" y2="1">
          <stop offset="0%" stop-color="#8ce99a"/><stop offset="100%" stop-color="#43aa5a"/>
        </linearGradient>
        <linearGradient id="gh-jadefern" x1="0" y1="0" x2="0" y2="1">
          <stop offset="0%" stop-color="#ffffff" stop-opacity=".85"/><stop offset="100%" stop-color="#8ce99a"/>
        </linearGradient>
        <linearGradient id="gp-moonflower" x1="0" y1="0" x2="0" y2="1">
          <stop offset="0%" stop-color="#ffffff"/><stop offset="100%" stop-color="#b9dcff"/>
        </linearGradient>
        <linearGradient id="gh-moonflower" x1="0" y1="0" x2="0" y2="1">
          <stop offset="0%" stop-color="#ffffff" stop-opacity=".85"/><stop offset="100%" stop-color="#ffffff"/>
        </linearGradient>
        <linearGradient id="gp-starlit" x1="0" y1="0" x2="0" y2="1">
          <stop offset="0%" stop-color="#e7dcff"/><stop offset="100%" stop-color="#b197fc"/>
        </linearGradient>
        <linearGradient id="gh-starlit" x1="0" y1="0" x2="0" y2="1">
          <stop offset="0%" stop-color="#ffffff" stop-opacity=".85"/><stop offset="100%" stop-color="#e7dcff"/>
        </linearGradient>
        <linearGradient id="gp-aurora" x1="0" y1="0" x2="0" y2="1">
          <stop offset="0%" stop-color="#a5f3fc"/><stop offset="100%" stop-color="#3bc9db"/>
        </linearGradient>
        <linearGradient id="gh-aurora" x1="0" y1="0" x2="0" y2="1">
          <stop offset="0%" stop-color="#ffffff" stop-opacity=".85"/><stop offset="100%" stop-color="#a5f3fc"/>
        </linearGradient>
        <linearGradient id="gp-celestial" x1="0" y1="0" x2="0" y2="1">
          <stop offset="0%" stop-color="#93a9ff"/><stop offset="100%" stop-color="#4c6ef5"/>
        </linearGradient>
        <linearGradient id="gh-celestial" x1="0" y1="0" x2="0" y2="1">
          <stop offset="0%" stop-color="#ffffff" stop-opacity=".85"/><stop offset="100%" stop-color="#93a9ff"/>
        </linearGradient>
        <linearGradient id="gp-nebula" x1="0" y1="0" x2="0" y2="1">
          <stop offset="0%" stop-color="#f9a3c1"/><stop offset="100%" stop-color="#d6336c"/>
        </linearGradient>
        <linearGradient id="gh-nebula" x1="0" y1="0" x2="0" y2="1">
          <stop offset="0%" stop-color="#ffffff" stop-opacity=".85"/><stop offset="100%" stop-color="#f9a3c1"/>
        </linearGradient>
        <linearGradient id="gp-solstice" x1="0" y1="0" x2="0" y2="1">
          <stop offset="0%" stop-color="#ffdfae"/><stop offset="100%" stop-color="#ff922b"/>
        </linearGradient>
        <linearGradient id="gh-solstice" x1="0" y1="0" x2="0" y2="1">
          <stop offset="0%" stop-color="#ffffff" stop-opacity=".85"/><stop offset="100%" stop-color="#ffdfae"/>
        </linearGradient>
        <linearGradient id="gp-auroracrown" x1="0" y1="0" x2="0" y2="1">
          <stop offset="0%" stop-color="#ffe6a7"/><stop offset="100%" stop-color="#7ce0ff"/>
        </linearGradient>
        <linearGradient id="gh-auroracrown" x1="0" y1="0" x2="0" y2="1">
          <stop offset="0%" stop-color="#ffffff" stop-opacity=".85"/><stop offset="100%" stop-color="#ffe6a7"/>
        </linearGradient>
        <linearGradient id="gp-mythicstar" x1="0" y1="0" x2="0" y2="1">
          <stop offset="0%" stop-color="#fff6cc"/><stop offset="100%" stop-color="#ffd43b"/>
        </linearGradient>
        <linearGradient id="gh-mythicstar" x1="0" y1="0" x2="0" y2="1">
          <stop offset="0%" stop-color="#ffffff" stop-opacity=".85"/><stop offset="100%" stop-color="#fff6cc"/>
        </linearGradient>
        <linearGradient id="gp-eternal" x1="0" y1="0" x2="0" y2="1">
          <stop offset="0%" stop-color="#fffdf0"/><stop offset="100%" stop-color="#ffcf5c"/>
        </linearGradient>
        <linearGradient id="gh-eternal" x1="0" y1="0" x2="0" y2="1">
          <stop offset="0%" stop-color="#ffffff" stop-opacity=".85"/><stop offset="100%" stop-color="#fffdf0"/>
        </linearGradient>
      <linearGradient id="gp-talker" x1="0" y1="0" x2="0" y2="1">
        <stop offset="0%" stop-color="#ffb3d1"/><stop offset="100%" stop-color="#ff5d95"/>
      </linearGradient>
      <radialGradient id="gface" cx="50%" cy="35%" r="70%">
        <stop offset="55%" stop-color="#ffffff"/><stop offset="100%" stop-color="#ffc978"/>
      </radialGradient></defs><style>.f-stemwrap{transform-origin:50% 120px;transform:scaleY(var(--sg,1))}
.f-leaves{transform-origin:50px 96px;transform:scale(var(--lg,1));opacity:var(--lo,1)}
.f-stemwrap,.f-head,.f-leaves,.f-petals{transition:transform .6s cubic-bezier(.34,1.4,.64,1)}
.f-sprout,.f-bud{display:none;opacity:0}
.stage-stem .f-sprout,
.stage-stem .f-bud,
.stage-bloom .f-bud{display:inline}
.f-sprout,.f-bud{transition:opacity .45s ease}
.f-bud-body{transform-origin:0 0;transition:transform .6s cubic-bezier(.34,1.4,.64,1)}
.f-petals{transition:transform .6s cubic-bezier(.34,1.4,.64,1),opacity .5s ease}
.f-core,.f-ring{transition:opacity .5s ease}
.stage-sprout{--sg:0;--lg:0;--lo:0}
.stage-sprout .f-sprout{display:inline;opacity:1}
.stage-sprout .f-head{transform:translate(50px,44px) scale(0);transform-origin:0 0}
.stage-stem{--sg:.62;--lg:.88;--lo:1}
.stage-stem .f-head{transform:translate(50px,44px) scale(0);transform-origin:0 0}
.stage-bud{--sg:.92;--lg:.97;--lo:1}
.stage-bud .f-bud{display:inline;opacity:1}
.stage-bud .f-bud-body{transform:translateY(var(--bud-drop,5px))}
.stage-bud .f-head{transform:translate(50px,44px) scale(.22);transform-origin:0 0}
.stage-bud .f-petals,.stage-bud .f-core,.stage-bud .f-ring{opacity:0}
.stage-bloom{--sg:1;--lg:1}
.stage-bloom .f-head{transform:translate(50px,44px) scale(var(--bloom,1));transform-origin:0 0;transition:transform var(--unfurl,.9s) cubic-bezier(.3,1.25,.5,1)}
.stage-bloom .f-petals,.stage-bloom .f-core,.stage-bloom .f-ring{transition:transform .6s cubic-bezier(.34,1.4,.64,1),opacity .5s ease .12s}
.stage-bloom .f-bud{transition:opacity .55s ease .1s}</style>
      <g class="f-stemwrap">
        <path class="f-stem" d="M50,120 C50,96 49,74 50,54" fill="none" stroke="#43a95a" stroke-width="7" stroke-linecap="round"/>
        <path class="f-stem-hi" d="M50,116 C50,96 49,76 50,58" fill="none" stroke="#ffffff" stroke-opacity=".22" stroke-width="2.4" stroke-linecap="round"/>
      </g>
      <g class="f-leaves">
        <path class="f-leaf f-leaf-l" d="M50,96 C36,98 24,90 20,78 C34,72 46,82 50,96 Z" fill="#43a95a" stroke="#2c1a10" stroke-width="2.6" stroke-linejoin="round"/>
        <path class="f-leaf f-leaf-r" d="M50,86 C64,88 76,80 80,68 C66,62 54,72 50,86 Z" fill="#43a95a" stroke="#2c1a10" stroke-width="2.6" stroke-linejoin="round"/>
      </g>
      
      <g class="f-sprout" transform="translate(50 99)">
        <g class="f-sprout-body" stroke="#2c1a10" stroke-width="2.6" stroke-linejoin="round">
          <path d="M0,21 C0,13 0,7 0,1" fill="none" stroke="#43a95a" stroke-width="4.5" stroke-linecap="round"/>
          <path d="M0,2 C-5,-7 -14,-11 -21,-9 C-20,-1 -11,5 0,2 Z" fill="#43a95a"/>
          <path d="M0,2 C5,-7 14,-11 21,-9 C20,-1 11,5 0,2 Z" fill="#43a95a"/>
        </g>
      </g>
      <g class="f-head" transform="translate(50 44)">
        
        <g class="f-petals" stroke="#2c1a10" stroke-width="2.6" stroke-linejoin="round">
          <g class="pt-group"><path class="pt pt-0" style="--i:0" d="M0,-30 C11,-30 15,-20 14,-9 C13,-1 7,3 0,3 C-7,3 -13,-1 -14,-9 C-15,-20 -11,-30 0,-30 Z" fill="url(#gp-bluebell)" transform="rotate(0) scale(1.15) translate(0 -14)"/><path class="pt pt-0" style="--i:1" d="M0,-30 C11,-30 15,-20 14,-9 C13,-1 7,3 0,3 C-7,3 -13,-1 -14,-9 C-15,-20 -11,-30 0,-30 Z" fill="url(#gp-bluebell)" transform="rotate(72) scale(1.15) translate(0 -14)"/><path class="pt pt-0" style="--i:2" d="M0,-30 C11,-30 15,-20 14,-9 C13,-1 7,3 0,3 C-7,3 -13,-1 -14,-9 C-15,-20 -11,-30 0,-30 Z" fill="url(#gp-bluebell)" transform="rotate(144) scale(1.15) translate(0 -14)"/><path class="pt pt-0" style="--i:3" d="M0,-30 C11,-30 15,-20 14,-9 C13,-1 7,3 0,3 C-7,3 -13,-1 -14,-9 C-15,-20 -11,-30 0,-30 Z" fill="url(#gp-bluebell)" transform="rotate(216) scale(1.15) translate(0 -14)"/><path class="pt pt-0" style="--i:4" d="M0,-30 C11,-30 15,-20 14,-9 C13,-1 7,3 0,3 C-7,3 -13,-1 -14,-9 C-15,-20 -11,-30 0,-30 Z" fill="url(#gp-bluebell)" transform="rotate(288) scale(1.15) translate(0 -14)"/><path class="pt pt-1" style="--i:0" d="M0,-30 C11,-30 15,-20 14,-9 C13,-1 7,3 0,3 C-7,3 -13,-1 -14,-9 C-15,-20 -11,-30 0,-30 Z" fill="url(#gh-bluebell)" transform="rotate(36) scale(0.7) translate(0 -6)"/><path class="pt pt-1" style="--i:1" d="M0,-30 C11,-30 15,-20 14,-9 C13,-1 7,3 0,3 C-7,3 -13,-1 -14,-9 C-15,-20 -11,-30 0,-30 Z" fill="url(#gh-bluebell)" transform="rotate(108) scale(0.7) translate(0 -6)"/><path class="pt pt-1" style="--i:2" d="M0,-30 C11,-30 15,-20 14,-9 C13,-1 7,3 0,3 C-7,3 -13,-1 -14,-9 C-15,-20 -11,-30 0,-30 Z" fill="url(#gh-bluebell)" transform="rotate(180) scale(0.7) translate(0 -6)"/><path class="pt pt-1" style="--i:3" d="M0,-30 C11,-30 15,-20 14,-9 C13,-1 7,3 0,3 C-7,3 -13,-1 -14,-9 C-15,-20 -11,-30 0,-30 Z" fill="url(#gh-bluebell)" transform="rotate(252) scale(0.7) translate(0 -6)"/><path class="pt pt-1" style="--i:4" d="M0,-30 C11,-30 15,-20 14,-9 C13,-1 7,3 0,3 C-7,3 -13,-1 -14,-9 C-15,-20 -11,-30 0,-30 Z" fill="url(#gh-bluebell)" transform="rotate(324) scale(0.7) translate(0 -6)"/></g>
        </g>
        
      </g>
      
      <g class="f-bud" transform="translate(50 44)">
        <g class="f-bud-body" stroke="#2c1a10" stroke-width="2.6" stroke-linejoin="round">
          <path d="M0,16 C0,8 -2,2 -6,-2" fill="none" stroke="#43a95a" stroke-width="4" stroke-linecap="round"/>
          <path d="M-10,-6 C-5,-3 -3,4 -5,10 C-7,15 -13,15 -15,10 C-17,4 -15,-3 -10,-6 Z" fill="url(#gp-bluebell)"/>
          <path d="M9,-5 C14,-2 16,5 14,11 C12,16 6,16 4,11 C2,5 4,-2 9,-5 Z" fill="url(#gh-bluebell)"/>
          <path d="M-1,-8 C4,-5 6,2 4,8 C2,13 -4,13 -6,8 C-8,2 -6,-5 -1,-8 Z" fill="url(#gp-bluebell)"/></g>
      </g>
    </svg>
