<svg xmlns="http://www.w3.org/2000/svg" width="24" height="24" viewBox="0 0 24 24" fill="none" stroke="#2c1a10" stroke-width="2" stroke-linecap="round" stroke-linejoin="round" aria-hidden="true">
      <path d="M8.4 8.2h7.2c2.4 1.8 3.8 4.3 3.8 6.9 0 3-2.6 5.3-7.4 5.3S4.6 18.1 4.6 15.1c0-2.6 1.4-5.1 3.8-6.9Z" fill="#fff3bf"/>
      <path d="M8.4 8.2c-.6-1.3-.4-2.6.6-3.4 1.4-1.1 4.6-1.1 6 0 1 .8 1.2 2.1.6 3.4" fill="#ffd8a8"/>
      <path d="M12 17.4c-2.1 0-3.4-1.4-3.6-3.6 2.4-.3 3.8 1 3.6 3.6Z" fill="#3f9d45" stroke-width="1.5"/>
      <path d="M12 17.4c.2-2.6 1.6-3.9 4-3.6-.2 2.2-1.5 3.6-3.6 3.6Z" fill="#7bd88f" stroke-width="1.5"/>
      <path d="M12 17.4v-2.2" stroke-width="1.5"/></svg>
